<svg width="127" height="36" viewBox="0 0 127 36" fill="none" xmlns="http://www.w3.org/2000/svg">
<path d="M47.5441 22.1365C52.0993 22.1365 55.0945 19.0477 55.0945 14.6485C55.0945 10.1869 52.1305 7.19173 47.5441 7.19173H38.5273V29.9989H42.5209V22.1365H47.5441ZM46.7641 10.7485C49.4161 10.7485 50.9137 12.1213 50.9137 14.6173C50.9137 17.1133 49.4473 18.5797 46.7017 18.5797H42.5209V10.7485H46.7641Z" fill="#0D0F20"/>
<path d="M61.7299 29.9989V6.78613H57.9547V29.9989H61.7299Z" fill="#0D0F20"/>
<path d="M70.3092 30.4045C72.7116 30.4045 74.802 29.3125 75.4572 27.7213L75.738 29.9989H79.0764V20.6389C79.0764 16.3645 76.518 14.1181 72.3684 14.1181C68.1876 14.1181 65.442 16.3021 65.442 19.6405H68.6868C68.6868 18.0181 69.9348 17.0821 72.1812 17.0821C74.1156 17.0821 75.3636 17.9245 75.3636 20.0149V20.3581L70.746 20.7013C67.0956 20.9821 65.0364 22.7605 65.0364 25.5997C65.0364 28.5013 67.0332 30.4045 70.3092 30.4045ZM71.5572 27.5341C69.8412 27.5341 68.9052 26.8477 68.9052 25.4437C68.9052 24.1957 69.81 23.4157 72.1812 23.1973L75.3948 22.9477V23.7589C75.3948 26.1301 73.8972 27.5341 71.5572 27.5341Z" fill="#0D0F20"/>
<path d="M86.6221 29.9989V21.6997C86.6221 19.2037 88.0573 17.5813 90.3973 17.5813C92.3629 17.5813 93.6421 18.8293 93.6421 21.4189V29.9989H97.4485V20.5141C97.4485 16.5205 95.4517 14.1181 91.5829 14.1181C89.4925 14.1181 87.6205 15.0229 86.6533 16.5829L86.3413 14.5861H82.8157V29.9989H86.6221Z" fill="#0D0F20"/>
<path d="M108.084 30.4045C112.108 30.4045 114.916 28.3765 115.572 25.0069H112.046C111.609 26.4733 110.236 27.2845 108.146 27.2845C105.619 27.2845 104.184 25.9117 103.903 23.1973L115.509 23.1661V22.0117C115.509 17.2069 112.576 14.1181 107.959 14.1181C103.435 14.1181 100.284 17.4565 100.284 22.2925C100.284 27.0661 103.497 30.4045 108.084 30.4045ZM107.99 17.2381C110.268 17.2381 111.734 18.6421 111.734 20.7637H103.996C104.371 18.4549 105.744 17.2381 107.99 17.2381Z" fill="#0D0F20"/>
<path d="M123.645 29.9989V17.7685H126.64V14.5861H123.645V9.78133H119.838V14.5861H116.874V17.7685H119.838V29.9989H123.645Z" fill="#0D0F20"/>
<path d="M0 0H3.6C8.23919 0 12 3.76081 12 8.4V24H0V0Z" fill="#3056D3"/>
<path opacity="0.8" d="M12 0C18.6274 0 24 5.37258 24 12C24 18.6274 18.6274 24 12 24V0Z" fill="#3056D3"/>
<path opacity="0.6" d="M0 23.9995H12V35.9995H8.4C3.76081 35.9995 0 32.2387 0 27.5995V23.9995Z" fill="#3056D3"/>
</svg>
