<svg width="175" height="17" viewBox="0 0 175 17" fill="none" xmlns="http://www.w3.org/2000/svg">
<path d="M164.266 1.6875H156.922V14.6181H164.266V1.6875Z" fill="#F26122"/>
<path d="M157.718 8.15183C157.704 5.65763 158.869 3.29563 160.876 1.74423C157.441 -0.883989 152.507 -0.502329 149.542 2.62083C146.577 5.74413 146.577 10.5599 149.542 13.6832C152.507 16.8061 157.441 17.1881 160.876 14.5595C158.869 13.0084 157.704 10.6464 157.718 8.15183Z" fill="#EA1D25"/>
<path d="M174.436 8.15177C174.433 11.2728 172.602 14.1192 169.717 15.4833C166.833 16.8474 163.401 16.4906 160.877 14.5642C164.512 11.7793 165.141 6.65627 162.284 3.11627C161.874 2.60357 161.402 2.14149 160.877 1.74004C163.401 -0.186617 166.833 -0.543566 169.717 0.820664C172.602 2.1849 174.433 5.03127 174.436 8.15177Z" fill="#F69E1E"/>
<path fill-rule="evenodd" clip-rule="evenodd" d="M119.295 11.6485C119.305 9.12762 117.221 8.03922 115.603 7.19352C114.579 6.65872 113.742 6.22132 113.742 5.58062C113.742 5.03452 114.272 4.45632 115.4 4.30702C116.741 4.17472 118.094 4.40902 119.311 4.98542L120.008 1.67841C118.821 1.23433 117.563 1.00473 116.295 1C112.383 1 109.664 3.08342 109.664 6.05972C109.664 8.25932 111.637 9.48292 113.129 10.2104C114.621 10.938 115.201 11.4501 115.184 12.1115C115.184 13.1367 113.958 13.5996 112.814 13.6166C111.403 13.6346 110.011 13.2935 108.769 12.6245L108.056 15.9315C109.461 16.4786 110.958 16.7536 112.466 16.7413C116.626 16.7413 119.362 14.6909 119.378 11.5162L119.295 11.6485ZM108.537 1.26551L105.222 16.5599H101.244L104.559 1.26551H108.537ZM125.213 11.1855L127.301 5.44842L128.512 11.1855H125.213ZM133.319 16.6099H129.639L129.158 14.3281H124.169L123.356 16.6099H119.179L125.13 2.43902C125.404 1.76439 126.057 1.32125 126.788 1.31464H130.103L133.319 16.6099ZM96.5189 16.5098L102.951 1.21543H98.6409L94.5139 11.6154L92.8559 2.76972C92.7089 1.87021 91.9289 1.21165 91.0159 1.21543H84.2699L84.1699 1.6614C85.5229 1.92596 86.8379 2.35871 88.0819 2.95112C88.6119 3.19962 88.9709 3.70892 89.0269 4.29092L92.1929 16.5098H96.5189Z" fill="#212B36"/>
<g clip-path="url(#clip0_1947_605)">
<path fill-rule="evenodd" clip-rule="evenodd" d="M6.12234 4.00195H10.9172C13.4917 4.00195 14.4608 5.30527 14.3111 7.22001C14.0635 10.3811 12.1525 12.13 9.61765 12.13H8.33785C7.99005 12.13 7.75612 12.3602 7.66206 12.984L7.1187 16.6105C7.08281 16.8457 6.95904 16.9819 6.77338 17.0004H3.76078C3.47734 17.0004 3.37709 16.7838 3.45135 16.3147L5.28812 4.68889C5.35991 4.22351 5.61488 4.00195 6.12234 4.00195Z" fill="#009EE3"/>
<path fill-rule="evenodd" clip-rule="evenodd" d="M26.9403 3.78711C28.558 3.78711 30.0507 4.66465 29.8465 6.85169C29.5989 9.45089 28.2065 10.8891 26.0096 10.8953H24.0899C23.8138 10.8953 23.6802 11.1206 23.6084 11.5822L23.2371 13.9426C23.1814 14.299 22.9982 14.4748 22.7284 14.4748H20.9423C20.6577 14.4748 20.5587 14.2928 20.6218 13.8856L22.0959 4.42577C22.1689 3.96039 22.3434 3.78711 22.6615 3.78711H26.9366H26.9403ZM24.0317 8.85183H25.486C26.3957 8.81718 26.9997 8.18718 27.0604 7.05096C27.0975 6.34918 26.6235 5.84666 25.8697 5.85038L24.5008 5.85657L24.0317 8.85183ZM34.702 13.7507C34.8654 13.6022 35.0313 13.5254 35.0077 13.7086L34.9496 14.1468C34.9199 14.3758 35.0102 14.497 35.2231 14.497H36.8099C37.0772 14.497 37.2072 14.3894 37.2728 13.976L38.2506 7.83938C38.3001 7.53119 38.2246 7.38019 37.9906 7.38019H36.2455C36.0883 7.38019 36.0115 7.46807 35.9707 7.70819L35.9063 8.08569C35.8729 8.28248 35.7825 8.31714 35.6984 8.11911C35.4026 7.41856 34.6476 7.10418 33.5943 7.12894C31.1473 7.17968 29.4974 9.03749 29.3204 11.4189C29.1843 13.2606 30.5037 14.7075 32.2439 14.7075C33.5064 14.7075 34.0708 14.3361 34.707 13.7544L34.702 13.7507ZM33.3727 12.8063C32.3194 12.8063 31.5855 11.9659 31.7377 10.9361C31.8899 9.90637 32.8752 9.06596 33.9285 9.06596C34.9817 9.06596 35.7157 9.90637 35.5635 10.9361C35.4112 11.9659 34.4272 12.8063 33.3727 12.8063ZM41.356 7.36039H39.7469C39.4152 7.36039 39.2803 7.60793 39.3855 7.91241L41.3832 13.7618L39.4239 16.5455C39.2593 16.7782 39.3868 16.9898 39.6182 16.9898H41.4265C41.5319 17.002 41.6386 16.9836 41.7338 16.9369C41.8291 16.8901 41.9089 16.817 41.9637 16.7262L48.1077 7.91365C48.2971 7.64259 48.208 7.35791 47.8973 7.35791H46.1855C45.8922 7.35791 45.7746 7.47426 45.6063 7.71809L43.0442 11.4312L41.8993 7.70943C41.8325 7.48416 41.6654 7.36039 41.3572 7.36039H41.356Z" fill="#113984"/>
<path fill-rule="evenodd" clip-rule="evenodd" d="M54.4996 3.78568C56.1173 3.78568 57.61 4.66322 57.4058 6.85026C57.1582 9.44946 55.7658 10.8877 53.5689 10.8939H51.6504C51.3744 10.8939 51.2407 11.1191 51.1689 11.5808L50.7976 13.9411C50.7419 14.2976 50.5587 14.4733 50.2889 14.4733H48.5029C48.2182 14.4733 48.1192 14.2914 48.1823 13.8842L49.6589 4.42186C49.7319 3.95648 49.9065 3.7832 50.2246 3.7832H54.4996V3.78568ZM51.591 8.8504H53.0453C53.955 8.81575 54.559 8.18575 54.6197 7.04953C54.6568 6.34775 54.1828 5.84523 53.429 5.84895L52.0601 5.85514L51.591 8.8504ZM62.2613 13.7493C62.4247 13.6008 62.5906 13.524 62.5671 13.7072L62.5089 14.1453C62.4792 14.3743 62.5695 14.4956 62.7824 14.4956H64.3692C64.6365 14.4956 64.7665 14.3879 64.8321 13.9745L65.8099 7.83795C65.8594 7.52976 65.7839 7.37876 65.5499 7.37876H63.8072C63.6501 7.37876 63.5733 7.46664 63.5325 7.70676L63.4681 8.08426C63.4347 8.28106 63.3443 8.31571 63.2602 8.11768C62.9644 7.41713 62.2094 7.10275 61.1561 7.12751C58.7091 7.17825 57.0592 9.03606 56.8822 11.4174C56.7461 13.2591 58.0655 14.706 59.8057 14.706C61.0682 14.706 61.6326 14.3347 62.2688 13.753L62.2613 13.7493ZM60.9333 12.8049C59.88 12.8049 59.146 11.9645 59.2982 10.9347C59.4505 9.90494 60.4357 9.06453 61.489 9.06453C62.5423 9.06453 63.2763 9.90494 63.124 10.9347C62.9718 11.9645 61.9866 12.8049 60.9333 12.8049ZM68.2519 14.5055H66.4201C66.3882 14.5069 66.3564 14.5013 66.327 14.489C66.2975 14.4768 66.2712 14.4581 66.2498 14.4345C66.2284 14.4108 66.2125 14.3827 66.2032 14.3522C66.1939 14.3217 66.1914 14.2895 66.196 14.258L67.8051 4.06417C67.8204 3.9946 67.8589 3.93227 67.9142 3.88733C67.9694 3.84238 68.0383 3.81746 68.1095 3.81662H69.9414C69.9732 3.8152 70.005 3.82083 70.0344 3.83311C70.0639 3.84539 70.0902 3.86402 70.1116 3.88767C70.133 3.91131 70.149 3.9394 70.1583 3.96991C70.1675 4.00042 70.17 4.0326 70.1654 4.06417L68.5564 14.258C68.5415 14.328 68.5033 14.3909 68.4479 14.4363C68.3926 14.4818 68.3235 14.507 68.2519 14.508V14.5055Z" fill="#009EE3"/>
<path fill-rule="evenodd" clip-rule="evenodd" d="M3.12378 0H7.92363C9.27521 0 10.8793 0.04332 11.9511 0.990171C12.6678 1.62264 13.044 2.6289 12.9574 3.71314C12.6628 7.37801 10.4708 9.43138 7.53004 9.43138H5.16353C4.76003 9.43138 4.49393 9.69872 4.38006 10.4215L3.71912 14.6298C3.6758 14.9021 3.55822 15.063 3.3478 15.0828H0.385958C0.0579645 15.0828 -0.0583816 14.8352 0.0270206 14.2882L2.15589 0.799562C2.24129 0.257443 2.53958 0 3.12378 0Z" fill="#113984"/>
<path fill-rule="evenodd" clip-rule="evenodd" d="M4.44922 9.99425L5.28715 4.68817C5.36018 4.22279 5.61515 4 6.12261 4H10.9175C11.7109 4 12.3533 4.12377 12.8558 4.35275C12.3743 7.61536 10.264 9.42738 7.50142 9.42738H5.13863C4.82177 9.42861 4.58908 9.58704 4.44922 9.99425Z" fill="#172C70"/>
</g>
<defs>
<clipPath id="clip0_1947_605">
<rect width="70.1697" height="17" fill="white"/>
</clipPath>
</defs>
</svg>
